<?xml version="1.0" encoding="UTF-8"?>
<svg width="148px" height="35px" viewBox="0 0 148 35" version="1.1" xmlns="http://www.w3.org/2000/svg" xmlns:xlink="http://www.w3.org/1999/xlink">
    <!-- Generator: Sketch 63.1 (92452) - https://sketch.com -->
    <title>Group 16</title>
    <desc>Created with Sketch.</desc>
    <defs>
        <polygon id="path-1" points="0.554710031 0.444600024 32.7349118 0.444600024 32.7349118 16.8773809 0.554710031 16.8773809"></polygon>
    </defs>
    <g id="Web" stroke="none" stroke-width="1" fill="none" fill-rule="evenodd">
        <g id="Home-page-1440" transform="translate(-1211.000000, -33.000000)">
            <g id="Group-16" transform="translate(1211.000000, 32.000000)">
                <path d="M27.2420215,29.4660576 C28.1286215,29.4673616 28.8787216,29.7832616 29.4897216,30.4137617 C30.1007217,31.0286617 30.4088217,31.7813617 30.4075258,32.6653618 C30.4062217,33.5532618 30.0955217,34.3007619 29.4832216,34.9130619 C28.8696216,35.526662 28.1169215,35.830862 27.2316215,35.8282785 C26.3476214,35.826962 25.5962214,35.521462 24.9878214,34.9052619 C24.3573213,34.2903619 24.0427213,33.5428618 24.0453053,32.6549618 C24.0466213,31.7696617 24.3625213,31.0195617 24.9943214,30.4059617 C25.6053214,29.7780616 26.3580215,29.4647616 27.2420215,29.4660576" id="Fill-1" fill="#000000"></path>
                <path d="M34.5239719,29.5275476 C35.4079719,29.5288516 36.168472,29.8460516 36.796372,30.4765517 C37.4073721,31.0927517 37.7141721,31.8428518 37.7128762,32.7307518 C37.7115721,33.6134518 37.4021721,34.3648519 36.788572,34.9771519 C36.159372,35.588152 35.3975719,35.896252 34.5135719,35.8949561 C33.6477719,35.893652 32.9041718,35.582952 32.2931718,34.9693519 C31.6639717,34.3544519 31.3493717,33.6030518 31.3506677,32.7203518 C31.3519717,31.8311518 31.6691717,31.0836517 32.2996718,30.4700517 C32.9145718,29.8408516 33.6581719,29.5262516 34.5239719,29.5275476" id="Fill-3" fill="#000000"></path>
                <g id="Group-7" transform="translate(114.400006, 0.856050)">
                    <mask id="mask-2" fill="white">
                        <use xlink:href="#path-1"></use>
                    </mask>
                    <g id="Clip-6"></g>
                    <path d="M24.8933114,10.4956806 L15.4943109,10.4800806 L25.5420114,0.458380025 L16.5512109,0.444080024 L0.554710031,16.8240809 L24.8829114,16.8617809 C24.9154114,16.8617809 24.9388114,16.8630809 24.9687114,16.8643809 L32.7349118,16.8773809 C32.2409118,12.6380807 29.6331116,10.5034806 24.8933114,10.4956806" id="Fill-5" fill="#000000" mask="url(#mask-2)"></path>
                </g>
                <path d="M106.445436,20.8573311 L96.0662353,20.8404311 L93.8445352,20.8365311 C91.715135,20.8326311 90.653035,19.2362311 90.656935,16.0512309 L90.681635,1.92673011 L90.673835,1.93843011 L90.673835,1.92673011 L84.3090346,8.53853047 L84.3051346,11.1723306 L84.2959949,16.0408309 C84.2830346,23.4677313 87.4628348,27.1896315 93.8341352,27.2000315 L101.461236,27.2130315 L107.672636,20.8586311 L106.445436,20.8573311 Z" id="Fill-8" fill="#000000"></path>
                <path d="M80.8529844,11.4678206 L74.4881841,17.939221 L74.4829841,20.7108211 L74.4881841,20.7108211 L74.4790841,26.1201214 C74.4777841,27.0756215 74.1345841,27.8907215 73.453384,28.5745216 C72.787784,29.2531216 71.976584,29.5911216 71.0249839,29.5898216 C70.0707839,29.5872216 69.2530838,29.2479216 68.5744838,28.5654216 L67.9569837,27.7945215 C66.6140837,29.4494216 64.6783836,30.4049217 62.1420834,30.6623217 L63.9412835,32.9256218 L64.0699835,33.0556218 C65.9731836,34.9848219 68.2871838,35.950722 71.0145839,35.9559338 C73.7224841,35.959822 76.0403842,35.0017219 77.9695843,33.0790218 C79.8779844,31.1563217 80.8360844,28.8423216 80.8412844,26.1305214 L80.8646844,12.1880207 L80.8516844,12.1997207 L80.8529844,11.4678206 Z" id="Fill-10" fill="#000000"></path>
                <path d="M11.0097006,26.0148214 C11.0084006,26.9690215 10.6743006,27.7854215 10.0087006,28.4666216 C9.32620051,29.1478216 8.50720047,29.4845216 7.55300042,29.4832216 L6.12560034,29.4819216 L0,35.837622 L7.54130041,35.849343 C10.2518006,35.854522 12.5671007,34.8964219 14.4976008,32.9724218 C16.1694009,31.3032217 17.1093009,29.3376216 17.318601,27.0717215 L22.8358013,27.0821215 L23.0945013,27.0821215 L24.8287014,27.0847215 C27.5015015,27.0899215 29.6218016,26.4204215 31.1935017,25.0749214 C32.7379018,26.4243215 34.8530019,27.0990215 37.5388021,27.1055215 L37.5505021,27.1055215 L37.6142021,27.1068215 L60.6580033,27.1445215 C65.4992036,27.1523215 69.6228038,24.8773214 69.6683038,20.7121211 L69.6709038,18.902521 L69.6696038,18.903821 L69.6839038,10.6514206 L63.2021035,17.1514206 L63.1982035,19.9867211 L63.1969035,20.7849211 L61.5186034,20.7823211 L60.6684033,20.7810211 L60.4396033,20.7810211 L60.2251033,20.7797211 L60.0535033,20.7797211 L60.0678033,11.4327206 L53.5873029,18.073121 L53.5834029,20.7693211 L51.1654028,20.7641211 L50.7390028,20.7641211 L50.5232028,20.7641211 L50.3503028,20.7628211 L50.3659028,11.4171206 L43.8828024,18.157621 L43.8789024,20.7524211 L41.4622023,20.7485211 L39.9711022,20.7459211 L39.7527022,20.7459211 L37.6246021,20.7420211 L34.7971019,20.7368211 L34.5813019,20.7368211 L34.4071019,20.7368211 L34.4240019,11.3898206 L27.9409015,18.109521 L27.9370015,20.7264211 L25.5203014,20.7225211 L17.881501,20.7095211 L17.664401,20.7082211 L17.492801,20.7082211 L17.508401,11.3625206 L11.0266006,18.025021" id="Fill-12" fill="#000000"></path>
                <path d="M142.464668,20.9214212 L136.575668,20.9110212 L123.547067,20.8902211 L116.064266,20.8772211 L111.962766,20.8694211 L105.690266,27.2199215 L109.023466,27.2251215 L109.176866,27.2264215 L117.577466,27.2394215 L130.347367,27.2615215 L136.495068,27.2719215 L139.273168,27.275843 C143.996068,27.2836215 146.610368,25.1646214 147.127768,20.9331212 L147.127768,20.9292212 L142.464668,20.9214212 Z" id="Fill-14" fill="#FF9933"></path>
            </g>
        </g>
    </g>
</svg>