<?xml version="1.0" standalone="no"?>
<!DOCTYPE svg PUBLIC "-//W3C//DTD SVG 20010904//EN"
 "http://www.w3.org/TR/2001/REC-SVG-20010904/DTD/svg10.dtd">
<svg version="1.0" xmlns="http://www.w3.org/2000/svg"
 width="200.000000pt" height="200.000000pt" viewBox="0 0 200.000000 200.000000"
 preserveAspectRatio="xMidYMid meet">

<g transform="translate(0.000000,200.000000) scale(0.100000,-0.100000)"
fill="#000000" stroke="none">
<path d="M0 1000 l0 -1000 1000 0 1000 0 0 1000 0 1000 -1000 0 -1000 0 0
-1000z m1483 468 c-16 -18 -100 -103 -186 -188 -86 -85 -157 -158 -157 -162 0
-5 96 -8 213 -8 255 0 296 -8 362 -75 30 -29 49 -60 61 -99 10 -31 15 -58 12
-61 -2 -3 -278 -4 -612 -3 l-607 3 303 312 303 313 169 0 168 0 -29 -32z m302
-755 c-21 -113 -98 -182 -226 -203 -73 -11 -1339 -14 -1339 -3 0 4 53 61 117
125 l118 118 668 0 669 0 -7 -37z"/>
</g>
</svg>
